<?xml version="1.0" standalone="no"?>
<!DOCTYPE svg PUBLIC "-//W3C//DTD SVG 20010904//EN"
 "http://www.w3.org/TR/2001/REC-SVG-20010904/DTD/svg10.dtd">
<svg version="1.0" xmlns="http://www.w3.org/2000/svg"
 width="500.000000pt" height="500.000000pt" viewBox="0 0 500.000000 500.000000"
 preserveAspectRatio="xMidYMid meet">
<metadata>
Created by potrace 1.16, written by Peter Selinger 2001-2019
</metadata>
<g transform="translate(0.000000,500.000000) scale(0.100000,-0.100000)"
fill="#000000" stroke="none">
<path d="M1282 3580 c-352 -95 -581 -429 -541 -788 34 -305 257 -556 556 -628
89 -22 247 -22 336 0 146 35 295 126 388 238 64 77 97 135 133 233 25 69 30
98 34 212 4 120 2 140 -22 225 -66 230 -243 416 -474 495 -106 37 -300 43
-410 13z m346 -221 c130 -43 237 -138 298 -265 132 -274 1 -591 -291 -704 -50
-20 -79 -24 -170 -24 -91 0 -120 4 -170 24 -292 113 -424 434 -290 705 43 88
83 136 157 191 135 99 305 126 466 73z m451 -695 c17 -4 31 -10 31 -15 0 -5
-12 -4 -26 1 -44 17 -55 12 -29 -15 14 -13 25 -32 25 -41 0 -27 -31 -54 -62
-54 -26 0 -28 -2 -18 -21 13 -23 7 -54 -14 -83 -14 -17 -16 -17 -55 15 -23 18
-43 30 -46 27 -3 -2 12 -24 32 -48 l37 -43 -39 7 c-22 4 -51 10 -65 13 -24 5
-24 4 9 -31 19 -20 30 -36 25 -36 -11 0 -84 74 -84 86 0 6 39 1 100 -13 24 -5
24 -4 -9 31 -19 20 -30 36 -23 36 7 0 12 5 12 12 0 20 42 58 64 58 18 0 21 6
21 42 0 39 3 45 35 60 40 20 37 20 79 12z"/>
<path d="M1185 3121 c-69 -31 -105 -93 -105 -178 0 -82 46 -136 128 -149 47
-7 50 -3 22 33 -17 22 -20 41 -20 142 0 133 11 161 60 161 50 0 65 -36 65
-160 0 -80 -4 -112 -15 -126 -14 -18 -14 -18 4 -4 19 15 19 13 12 -68 -8 -100
-29 -157 -65 -177 l-26 -15 30 6 c69 15 140 80 178 163 30 68 30 209 -1 268
-56 106 -168 150 -267 104z"/>
<path d="M1680 2825 c-8 -10 -12 -41 -11 -85 l2 -69 -43 -4 -43 -4 43 -1 c37
-2 42 -5 42 -25 0 -13 -5 -28 -12 -35 -9 -9 0 -12 43 -11 29 0 48 3 42 6 -7 2
-13 17 -13 33 0 22 5 30 23 33 l22 4 -22 2 c-22 1 -23 5 -23 86 0 76 -2 85
-19 85 -10 0 -24 -7 -31 -15z"/>
<path d="M1142 2734 c-47 -33 -13 -144 44 -144 16 0 16 2 -2 15 -19 14 -19 14
2 15 34 0 67 32 67 65 0 54 -64 82 -111 49z"/>
<path d="M3392 3085 c-45 -51 -106 -163 -117 -213 -7 -32 -9 -33 -48 -30 -41
3 -42 4 -48 47 -4 31 -14 51 -34 68 -25 22 -29 23 -49 10 -15 -11 -21 -25 -21
-53 0 -27 -13 -62 -42 -114 -66 -118 -73 -122 -99 -55 -20 54 -14 123 16 169
68 106 86 177 50 196 -38 20 -92 -53 -126 -169 -3 -10 -8 -11 -18 -2 -20 17
-59 -1 -90 -42 -14 -19 -26 -39 -26 -46 0 -8 -14 -11 -42 -9 -43 3 -43 3 -49
47 -4 31 -14 51 -34 68 -25 22 -29 23 -49 10 -15 -11 -21 -25 -21 -53 -1 -48
-45 -146 -76 -168 -13 -9 -32 -16 -43 -16 -17 0 -18 6 -13 63 3 38 16 87 35
128 28 62 32 66 73 76 l44 11 -37 1 c-37 1 -38 2 -38 40 0 22 -3 42 -7 44 -18
11 -50 -14 -67 -51 -14 -31 -25 -42 -50 -47 -29 -6 -30 -7 -10 -17 l21 -10
-23 -76 c-30 -96 -31 -151 -3 -186 33 -42 73 -36 126 21 28 32 43 42 43 31 0
-10 9 -22 19 -28 29 -15 69 7 92 52 18 34 23 38 59 38 36 0 40 -3 40 -25 0
-30 32 -65 60 -65 10 0 28 10 40 22 l20 22 0 -26 c0 -33 40 -92 66 -96 30 -4
71 33 102 91 25 49 27 50 30 24 8 -62 78 -53 113 15 18 35 23 38 63 38 41 0
43 -1 38 -25 -10 -54 34 -105 91 -105 13 0 41 21 73 55 47 49 53 53 56 33 2
-13 15 -26 34 -34 40 -16 89 6 117 54 l20 34 13 -23 c19 -34 17 -45 -14 -81
-45 -52 -50 -80 -8 -39 43 42 51 20 11 -28 l-26 -30 27 3 c32 4 71 45 80 84
10 45 11 46 43 65 l31 18 0 -34 c0 -69 64 -109 116 -73 26 18 69 80 89 129 22
52 9 46 -16 -8 -24 -50 -61 -85 -92 -85 -18 0 -19 5 -14 63 3 38 16 87 35 128
28 62 32 66 73 76 l44 11 -37 1 c-37 1 -38 2 -38 40 0 22 -3 42 -7 44 -18 11
-50 -14 -67 -51 -14 -31 -25 -41 -50 -46 -30 -7 -30 -8 -10 -19 l21 -12 -21
-62 c-21 -61 -48 -93 -92 -107 -16 -5 -24 1 -37 29 -19 40 -22 71 -7 80 23 14
5 85 -22 85 -16 0 -39 -63 -37 -104 3 -47 -20 -87 -58 -105 -16 -7 -24 -6 -34
5 -12 14 -8 44 16 122 6 18 3 22 -13 22 -15 0 -33 -21 -66 -79 -30 -53 -57
-86 -81 -101 -47 -29 -58 -18 -57 55 0 48 6 66 37 114 54 84 96 176 89 195
-11 28 -41 18 -82 -29z"/>
</g>
</svg>
